<?xml version="1.0" encoding="UTF-8" standalone="no"?>
<svg
   xmlns:dc="http://purl.org/dc/elements/1.1/"
   xmlns:cc="http://creativecommons.org/ns#"
   xmlns:rdf="http://www.w3.org/1999/02/22-rdf-syntax-ns#"
   xmlns:svg="http://www.w3.org/2000/svg"
   xmlns="http://www.w3.org/2000/svg"
   xmlns:sodipodi="http://sodipodi.sourceforge.net/DTD/sodipodi-0.dtd"
   xmlns:inkscape="http://www.inkscape.org/namespaces/inkscape"
   width="1377pt"
   height="268pt"
   viewBox="0 0 1377 268"
   version="1.1"
   id="svg3336"
   inkscape:version="0.91 r13725"
   sodipodi:docname="varden_labs.svg">
  <metadata
     id="metadata3378">
    <rdf:RDF>
      <cc:Work
         rdf:about="">
        <dc:format>image/svg+xml</dc:format>
        <dc:type
           rdf:resource="http://purl.org/dc/dcmitype/StillImage" />
      </cc:Work>
    </rdf:RDF>
  </metadata>
  <defs
     id="defs3376" />
  <sodipodi:namedview
     pagecolor="#ffffff"
     bordercolor="#666666"
     borderopacity="1"
     objecttolerance="10"
     gridtolerance="10"
     guidetolerance="10"
     inkscape:pageopacity="0"
     inkscape:pageshadow="2"
     inkscape:window-width="1205"
     inkscape:window-height="697"
     id="namedview3374"
     showgrid="false"
     inkscape:zoom="0.61002179"
     inkscape:cx="860.625"
     inkscape:cy="167.5"
     inkscape:window-x="-8"
     inkscape:window-y="-8"
     inkscape:window-maximized="1"
     inkscape:current-layer="svg3336" />
  <path
     fill="#2643c4"
     d=" M 35.08 28.07 C 53.97 28.02 72.89 27.80 91.78 28.18 C 97.53 40.60 102.67 53.31 108.10 65.88 C 122.56 99.30 136.65 132.89 151.26 166.24 C 153.17 170.91 154.89 175.67 157.28 180.13 C 159.20 177.49 160.40 174.45 161.59 171.44 C 180.38 127.68 199.87 84.21 218.54 40.39 C 223.64 39.46 228.85 40.04 234.00 39.95 C 449.67 39.93 665.34 39.97 881.00 39.93 C 884.69 40.16 888.81 39.10 892.21 40.81 C 899.37 47.67 906.17 54.93 913.39 61.74 C 916.56 64.22 915.14 68.57 915.35 71.99 C 915.46 114.34 914.79 156.69 915.19 199.03 C 919.09 199.44 923.01 199.30 926.93 199.08 C 950.24 198.97 973.57 198.92 996.89 199.10 C 997.12 203.08 997.11 207.07 996.91 211.05 C 977.94 211.03 958.97 211.17 940.00 211.11 C 927.70 211.05 915.40 211.67 903.11 211.14 C 902.87 167.09 903.21 123.04 903.14 79.00 C 903.04 75.46 903.52 71.85 902.75 68.37 C 898.17 63.27 893.03 58.69 888.34 53.68 C 886.36 51.09 882.78 52.23 879.99 51.98 C 662.99 52.04 445.98 51.97 228.97 52.01 C 227.49 51.72 226.31 52.58 225.94 54.00 C 206.17 100.40 185.78 146.55 165.74 192.83 C 163.51 199.45 161.24 206.11 157.73 212.18 C 132.84 154.66 108.43 96.93 83.53 39.42 C 81.70 39.21 79.87 39.01 78.04 39.01 C 63.73 39.11 49.43 39.00 35.12 39.07 C 34.89 35.41 34.87 31.74 35.08 28.07 Z"
     id="path3340" />
  <path
     fill="#4aafec"
     d=" M 211.42 28.38 C 212.93 28.25 214.44 28.12 215.95 28.10 C 441.31 28.11 666.67 28.10 892.02 28.11 C 894.41 27.95 896.64 29.01 898.25 30.75 C 907.36 39.97 916.57 49.09 925.74 58.26 C 927.38 59.67 926.87 62.05 927.05 63.96 C 926.90 109.00 927.15 154.04 926.93 199.08 C 923.01 199.30 919.09 199.44 915.19 199.03 C 914.79 156.69 915.46 114.34 915.35 71.99 C 915.14 68.57 916.56 64.22 913.39 61.74 C 906.17 54.93 899.37 47.67 892.21 40.81 C 888.81 39.10 884.69 40.16 881.00 39.93 C 665.34 39.97 449.67 39.93 234.00 39.95 C 228.85 40.04 223.64 39.46 218.54 40.39 C 199.87 84.21 180.38 127.68 161.59 171.44 C 160.40 174.45 159.20 177.49 157.28 180.13 C 154.89 175.67 153.17 170.91 151.26 166.24 C 153.81 161.89 155.48 157.12 157.64 152.58 C 166.38 132.37 175.00 112.11 183.98 92.00 C 190.65 75.53 198.10 59.38 205.08 43.04 C 207.12 38.13 209.11 33.18 211.42 28.38 Z"
     id="path3342" />
  <path
     fill="#4aafec"
     d=" M 35.12 39.07 C 49.43 39.00 63.73 39.11 78.04 39.01 C 79.87 39.01 81.70 39.21 83.53 39.42 C 108.43 96.93 132.84 154.66 157.73 212.18 C 156.62 215.44 155.52 218.77 153.69 221.71 C 152.90 223.53 150.81 222.77 149.28 222.84 C 144.00 212.96 140.07 202.35 136.25 191.82 C 124.12 164.43 112.64 136.77 100.69 109.31 C 94.71 95.03 88.39 80.89 82.56 66.55 C 80.30 61.73 78.96 56.42 75.85 52.04 C 62.29 51.61 48.71 52.08 35.15 51.89 C 34.99 47.62 35.00 43.34 35.12 39.07 Z"
     id="path3344" />
  <path
     d="M 682.55859 88.1875 C 679.68828 88.178125 676.81914 88.306641 673.96289 88.650391 C 673.61289 114.50039 674.26289 140.38828 673.65039 166.23828 C 668.81289 160.30078 663.83828 154.34922 657.48828 149.94922 C 640.23828 137.13672 616.52578 134.71172 596.42578 141.57422 C 582.30078 146.14922 570.38672 156.05078 561.57422 167.80078 C 551.29922 181.55078 547.0625 199.27422 548.625 216.26172 C 550.325 248.24922 576.5125 277.21211 608.3125 281.59961 C 626.6375 284.31211 646.0625 279.58789 660.625 268.02539 C 665.45 264.52539 669.02422 259.64961 673.69922 255.97461 C 674.14922 263.49961 673.63828 271.03672 673.98828 278.57422 C 679.70078 278.89922 685.43828 278.86211 691.17578 278.66211 C 691.30078 215.29961 691.31211 151.91328 691.16211 88.550781 C 688.29961 88.344531 685.42891 88.196875 682.55859 88.1875 z M 621.6582 154.87305 C 628.97061 154.97281 636.25977 156.40117 642.96289 159.40039 C 659.55039 166.78789 671.91289 183.075 674.27539 201.125 C 677.11289 218.0875 672.57422 236.675 660.44922 249.1875 C 651.31172 258.3 639.08828 264.5625 626.17578 265.75 C 612.30078 267.3375 597.93672 262.9125 587.13672 254.125 C 573.78672 243.2 565.625 225.99922 566.1875 208.69922 C 566.55 183.33672 586.17461 159.03711 611.72461 155.53711 C 615.00586 155.05664 618.33438 154.8277 621.6582 154.87305 z "
     transform="scale(0.8,0.8)"
     id="path3346"
     style="fill:#000000" />
  <path
     d="M 1445.6133 88.136719 C 1442.618 88.144531 1439.625 88.4 1436.6875 88.875 C 1436.6625 152.075 1436.7367 215.27461 1436.6367 278.47461 C 1442.6117 278.94961 1448.6258 278.94961 1454.6133 278.47461 C 1454.7633 270.54961 1454.1742 262.6 1454.8242 254.6875 C 1457.8617 257.2375 1460.1129 260.55 1462.9629 263.3125 C 1484.5879 286.075 1522.6125 288.21211 1548 270.53711 C 1561.625 260.97461 1572.7371 247.06328 1577.0371 230.80078 C 1584.8121 205.27578 1577.3 175.54961 1557.625 157.34961 C 1539.575 139.07461 1510.8133 133.06211 1486.7383 141.66211 C 1473.9883 145.58711 1463.875 154.68828 1454.8125 164.05078 C 1454.2125 139.01328 1454.7633 113.93672 1454.5508 88.886719 C 1451.607 88.367969 1448.6086 88.128906 1445.6133 88.136719 z M 1507.0273 153.75977 C 1518.2295 153.65098 1529.3863 157.44453 1538.5879 163.8125 C 1560.3504 179.1375 1568.5508 211 1556.1133 234.6875 C 1552.2633 243.2125 1545.6871 250.19961 1538.2871 255.78711 C 1523.5996 265.96211 1503.8883 267.94961 1487.3008 261.53711 C 1474.2758 256.51211 1463.7996 245.8375 1458.0371 233.25 C 1453.2746 222.975 1452.5508 211.27578 1453.9258 200.17578 C 1455.9383 184.40078 1465.4371 169.58789 1479.4121 161.83789 C 1485.6121 158.42539 1492.2496 155.58711 1499.2871 154.47461 C 1501.8535 154.01758 1504.4422 153.78487 1507.0273 153.75977 z "
     transform="scale(0.8,0.8)"
     id="path3348"
     style="fill:#000000" />
  <path
     d="M 364.03125 137.7832 C 358.06367 137.81912 352.10664 138.61836 346.38672 140.17578 C 330.06172 144.35078 315.87539 155.07539 306.27539 168.77539 C 294.61289 185.03789 291.23672 206.41328 295.38672 225.80078 C 298.93672 243.67578 310.0125 259.65078 324.875 270.05078 C 337.475 279.22578 353.37539 283.20039 368.83789 282.15039 C 385.22539 281.38789 400.72461 273.68711 412.53711 262.53711 C 414.82461 260.43711 416.52422 257.53672 419.51172 256.32422 C 419.69922 263.76172 419.05078 271.22461 419.73828 278.66211 C 425.30078 278.86211 430.875 278.87578 436.4375 278.61328 C 437.0625 271.17578 436.53672 263.7 436.69922 256.25 C 436.72422 219.575 436.67461 182.91328 436.72461 146.23828 C 436.66211 144.61328 436.5625 142.9875 436.4375 141.375 C 430.875 141.125 425.30078 141.13789 419.73828 141.33789 C 419.08828 149.60039 419.62461 157.88711 419.59961 166.16211 C 414.97461 161.78711 411.375 156.39961 406.25 152.53711 C 394.60625 142.58242 379.28173 137.6914 364.03125 137.7832 z M 366.56641 154.89062 C 377.35583 154.94815 388.16562 157.92617 397.01172 164.21289 C 409.11172 172.88789 417.97539 186.4125 419.83789 201.3125 C 421.27539 213.3625 420.22461 226.12578 414.47461 236.98828 C 402.29961 261.48828 369.62461 273.0875 344.78711 261.5 C 329.96211 255.3125 318.83789 242.08672 314.21289 226.82422 C 305.35039 201.07422 319.28828 169.86328 344.42578 159.36328 C 349.05078 157.18828 354.0375 155.85 359.125 155.3125 C 361.58828 155.01953 364.07654 154.87735 366.56641 154.89062 z "
     transform="scale(0.8,0.8)"
     id="path3350"
     style="fill:#000000" />
  <path
     fill="#070707"
     d=" M 412.18 111.20 C 418.54 109.10 425.48 110.61 431.07 114.03 C 428.81 118.02 426.58 122.07 423.72 125.66 C 419.55 124.37 415.11 123.14 410.86 124.91 C 399.61 128.95 393.85 140.99 391.93 152.06 C 388.86 175.55 390.45 199.32 389.93 222.93 C 385.28 223.08 380.61 223.07 375.96 222.95 C 376.03 186.32 376.02 149.68 375.96 113.05 C 380.62 112.93 385.28 112.92 389.94 113.07 C 390.17 118.38 389.81 123.70 390.15 129.01 C 395.73 121.30 402.67 113.78 412.18 111.20 Z"
     id="path3352" />
  <path
     d="M 794.58594 137.76953 C 784.4875 137.87109 774.40664 139.95625 765.15039 144 C 749.53789 151.2125 737.69961 165.05 730.59961 180.5 C 723.58711 196.7125 722.88828 215.38711 727.80078 232.28711 C 733.92578 251.22461 747.17539 268.66328 765.77539 276.67578 C 780.75039 282.58828 797.48828 283.77539 813.23828 280.58789 C 829.78828 277.11289 844.89922 267.12539 854.44922 253.15039 C 856.94922 249.23789 860.57461 245.46289 860.97461 240.65039 C 856.12461 238.61289 851.9125 234.82578 846.6875 233.92578 C 843.125 238.78828 840.3125 244.22422 836.0625 248.57422 C 824.4625 261.16172 806.75078 266.78672 789.92578 265.94922 C 777.05078 264.88672 764.48672 258.83711 756.32422 248.72461 C 747.26172 238.58711 743.08828 224.95039 742.80078 211.52539 C 783.92578 210.83789 825.07422 211.53828 866.19922 211.17578 C 866.29922 199.55078 863.925 187.85078 859 177.30078 C 851.6 162.56328 839.4125 149.95 824.125 143.4375 C 814.8 139.55 804.68438 137.66797 794.58594 137.76953 z M 795.29883 154.7168 C 810.89575 154.78169 826.59063 161.35039 836.55078 173.46289 C 841.51328 180.11289 845.27422 187.89922 846.57422 196.13672 C 812.66172 196.32422 778.73672 196.3375 744.82422 196.125 C 747.67422 183.575 754.38711 171.31289 765.28711 164.02539 C 774.00117 157.67266 784.62725 154.6724 795.29883 154.7168 z "
     transform="scale(0.8,0.8)"
     id="path3354"
     style="fill:#1a1a1a" />
  <path
     fill="#070707"
     d=" M 735.87 129.94 C 744.86 118.27 759.07 110.32 773.96 110.26 C 781.40 110.04 788.86 111.94 795.21 115.84 C 804.98 121.32 811.42 131.71 813.26 142.63 C 815.70 153.59 814.86 164.86 815.00 176.00 C 814.92 191.63 815.15 207.27 814.90 222.90 C 810.29 223.10 805.67 223.08 801.06 222.94 C 800.90 207.29 801.05 191.65 801.00 176.00 C 800.89 167.36 801.42 158.67 800.23 150.07 C 799.55 142.12 796.51 133.94 790.15 128.82 C 783.38 123.47 774.15 122.59 765.88 123.83 C 749.29 126.68 736.10 141.59 734.45 158.22 C 732.42 179.71 733.95 201.35 733.15 222.89 C 728.51 223.10 723.87 223.14 719.25 222.84 C 719.32 186.29 719.25 149.73 719.28 113.18 C 723.89 112.85 728.52 112.90 733.14 113.10 C 733.72 119.38 733.11 125.68 733.38 131.97 C 734.30 131.43 735.21 130.82 735.87 129.94 Z"
     id="path3356"
     style="fill:#000000" />
  <path
     d="M 1323.4941 137.81641 C 1318.274 137.83457 1313.0617 138.42422 1308.0117 139.57422 C 1291.7867 143.18672 1277.5871 153.21289 1267.5371 166.27539 C 1256.9621 179.52539 1252.2133 196.875 1253.2383 213.6875 C 1253.6883 246.3125 1279.8996 276.725 1312.2871 281.4375 C 1330.5621 284.4875 1350.075 279.85039 1364.75 268.46289 C 1369.975 264.96289 1373.6992 259.78789 1378.6367 255.96289 C 1378.9992 263.52539 1378.4879 271.09961 1378.8379 278.66211 C 1384.5629 278.86211 1390.2996 278.88711 1396.0371 278.59961 C 1396.1621 232.86211 1396.0629 187.12422 1396.0879 141.38672 C 1390.3379 141.11172 1384.5754 141.13789 1378.8379 141.33789 C 1378.4754 149.36289 1379.0504 157.38711 1378.5879 165.41211 C 1374.1004 161.92461 1371.1875 156.82539 1366.625 153.40039 C 1354.8969 142.85352 1339.1545 137.76191 1323.4941 137.81641 z M 1326.832 154.88867 C 1333.1595 154.97705 1339.4648 156.02539 1345.3633 158.33789 C 1363.2383 165.18789 1376.7883 182.25039 1379.1133 201.27539 C 1381.5133 215.83789 1378.425 231.44961 1369.8125 243.53711 C 1356.675 261.81211 1331.5496 270.58789 1309.9746 263.77539 C 1284.3996 256.33789 1267.4871 228.55039 1271.4746 202.40039 C 1274.4371 179.68789 1292.6125 159.43672 1315.5 155.69922 C 1319.2312 155.12734 1323.0355 154.83564 1326.832 154.88867 z "
     transform="scale(0.8,0.8)"
     id="path3358"
     style="fill:#000000" />
  <path
     fill="#070707"
     d=" M 1289.83 121.90 C 1295.82 113.86 1306.14 109.76 1316.02 110.31 C 1326.96 111.21 1337.02 117.20 1344.45 125.06 C 1342.03 128.07 1339.51 131.06 1336.52 133.50 C 1335.46 134.59 1334.32 133.09 1333.49 132.53 C 1327.65 127.25 1320.10 123.11 1311.99 123.65 C 1303.45 123.85 1295.43 132.19 1297.06 140.91 C 1298.27 147.56 1303.86 152.33 1309.38 155.65 C 1319.37 161.79 1330.83 166.24 1338.58 175.41 C 1348.51 187.31 1346.27 206.69 1334.77 216.78 C 1323.13 228.49 1303.57 228.11 1290.11 219.81 C 1286.05 217.25 1281.99 214.25 1279.53 210.06 C 1282.11 206.70 1284.89 203.47 1288.09 200.67 C 1292.18 204.07 1295.87 208.13 1300.91 210.17 C 1308.42 213.70 1318.22 213.28 1324.64 207.67 C 1328.80 204.43 1331.56 199.32 1331.42 193.99 C 1331.65 188.64 1328.66 183.70 1324.54 180.50 C 1312.69 171.28 1296.24 167.42 1287.99 154.01 C 1282.29 144.19 1282.89 130.97 1289.83 121.90 Z"
     id="path3360" />
  <path
     fill="#4aafec"
     d=" M 903.11 211.14 C 915.40 211.67 927.70 211.05 940.00 211.11 C 958.97 211.17 977.94 211.03 996.91 211.05 C 997.09 214.96 997.10 218.89 996.83 222.81 C 967.55 223.30 938.25 222.83 908.96 223.04 C 907.08 222.76 904.48 223.57 903.32 221.64 C 902.71 218.17 902.91 214.63 903.11 211.14 Z"
     id="path3372" />
</svg>
