<?xml version="1.0" encoding="UTF-8" standalone="no"?>
<svg
   xmlns:dc="http://purl.org/dc/elements/1.1/"
   xmlns:cc="http://creativecommons.org/ns#"
   xmlns:rdf="http://www.w3.org/1999/02/22-rdf-syntax-ns#"
   xmlns:svg="http://www.w3.org/2000/svg"
   xmlns="http://www.w3.org/2000/svg"
   xmlns:sodipodi="http://sodipodi.sourceforge.net/DTD/sodipodi-0.dtd"
   xmlns:inkscape="http://www.inkscape.org/namespaces/inkscape"
   width="906pt"
   height="787pt"
   viewBox="0 0 906 787"
   version="1.1"
   id="svg3336"
   inkscape:version="0.91 r13725"
   sodipodi:docname="VL.svg">
  <metadata
     id="metadata3354">
    <rdf:RDF>
      <cc:Work
         rdf:about="">
        <dc:format>image/svg+xml</dc:format>
        <dc:type
           rdf:resource="http://purl.org/dc/dcmitype/StillImage" />
      </cc:Work>
    </rdf:RDF>
  </metadata>
  <defs
     id="defs3352" />
  <sodipodi:namedview
     pagecolor="#ffffff"
     bordercolor="#666666"
     borderopacity="1"
     objecttolerance="10"
     gridtolerance="10"
     guidetolerance="10"
     inkscape:pageopacity="0"
     inkscape:pageshadow="2"
     inkscape:window-width="1218"
     inkscape:window-height="697"
     id="namedview3350"
     showgrid="false"
     inkscape:zoom="0.53672173"
     inkscape:cx="291.43348"
     inkscape:cy="491.875"
     inkscape:window-x="54"
     inkscape:window-y="-8"
     inkscape:window-maximized="1"
     inkscape:current-layer="svg3336" />
  <path
     fill="#fefeff"
     d=" M 0.00 0.00 L 906.00 0.00 L 906.00 787.00 L 0.00 787.00 L 0.00 0.00 Z"
     id="path3338"
     style="fill:none" />
  <path
     d="M 566.33398 112.45117 C 542.1088 112.32353 517.87539 114.4957 494.07422 119.02539 C 419.67422 132.72539 349.54961 168.77539 295.22461 221.46289 C 262.38711 253.11289 235.57422 290.825 215.63672 331.8125 C 226.62422 333.1875 237.7125 332.40078 248.75 332.55078 C 276.2375 332.65078 303.73711 332.39961 331.22461 332.66211 C 335.94961 341.58711 339.28828 351.13828 343.48828 360.30078 C 383.03828 453.17578 422.75 545.98672 462.375 638.82422 C 466.3125 647.83672 469.56328 657.18711 474.73828 665.59961 C 510.06328 583.32461 546.01211 501.31172 581.59961 419.13672 C 590.83711 398.32422 599.29961 377.16172 609.03711 356.57422 C 613.93711 356.37422 618.83672 356.21328 623.76172 356.23828 C 653.44922 356.45078 683.13672 356.11172 712.82422 356.38672 C 713.29922 368.42422 712.83672 380.4625 712.94922 392.5 C 713.01172 462.925 712.66211 533.3375 712.66211 603.75 C 712.86211 624 711.6 644.30039 713.125 664.52539 C 724.925 666.18789 736.86211 665.27539 748.72461 665.33789 C 803.74961 665.16289 858.77578 665.01211 913.80078 665.16211 C 916.73828 660.98711 917.88789 655.86328 920.08789 651.30078 C 942.78789 599.12578 953.13789 541.77461 951.02539 484.97461 C 950.41289 456.67461 945.45 428.675 938.6875 401.25 C 926.55 355.9625 906.56328 312.68828 879.23828 274.55078 C 829.22578 203.77578 754.37422 151.3625 671.13672 127.5625 C 637.12969 117.73594 601.74002 112.63772 566.33398 112.45117 z M 566.2168 152.58008 C 595.91519 152.68928 625.59258 156.60469 654.27539 164.4375 C 702.41289 177.3875 747.75078 200.79922 786.11328 232.63672 C 819.11328 259.98672 846.79961 293.63828 867.66211 331.05078 C 888.59961 369.22578 902.68672 411.225 908.26172 454.4375 C 916.59922 517.55 907.1875 582.96328 880.9375 640.98828 C 852.3 641.71328 823.65 641.03711 795 641.41211 C 783.3625 641.37461 771.73711 641.52422 760.09961 641.32422 C 760.37461 545.04922 760.44961 448.775 760.47461 352.5 C 760.58711 337.9375 760.34961 323.375 759.84961 308.8125 C 712.39961 308.25 664.95 308.74922 617.5 308.57422 C 604.275 308.78672 591.03672 308.05039 577.82422 309.02539 C 570.83672 323.57539 565.2125 338.71328 558.4375 353.36328 C 530.4875 418.32578 502.4625 483.26172 474.4375 548.19922 C 470.1875 557.64922 466.61211 567.41172 461.72461 576.57422 C 423.46211 487.38672 385.37461 398.12461 347.28711 308.84961 C 323.18711 308.34961 299.07539 309.075 274.96289 308.5 C 310.57539 253.75 362.5125 209.91211 422.0625 183.22461 C 467.16406 162.78711 516.71948 152.39807 566.2168 152.58008 z "
     transform="scale(0.8,0.8)"
     id="path3340"
     style="fill:#1d35d5;fill-opacity:1" />
  <path
     fill="#43b2f3"
     d=" M 462.26 247.22 C 472.83 246.44 483.42 247.03 494.00 246.86 C 531.96 247.00 569.92 246.60 607.88 247.05 C 608.28 258.70 608.47 270.35 608.38 282.00 C 608.36 359.02 608.30 436.04 608.08 513.06 C 601.76 513.42 595.43 513.53 589.11 513.13 C 588.95 463.09 589.43 413.05 589.33 363.00 C 589.35 335.67 589.32 308.33 589.37 281.00 C 589.49 276.04 589.41 271.09 588.98 266.15 C 564.66 265.65 540.32 266.08 516.00 265.94 C 502.42 266.07 488.83 265.65 475.25 266.15 C 444.42 336.66 413.58 407.19 382.87 477.76 C 381.79 480.16 380.65 482.53 379.49 484.90 C 376.06 477.04 372.41 469.28 369.38 461.26 C 373.29 453.93 376.15 446.12 379.55 438.56 C 401.97 386.61 424.39 334.66 446.75 282.69 C 452.17 270.97 456.67 258.86 462.26 247.22 Z"
     id="path3344" />
  <path
     fill="#43b2f3"
     d=" M 164.35 284.31 C 167.16 278.06 169.20 271.47 172.51 265.45 C 181.30 266.55 190.17 265.92 199.00 266.04 C 220.99 266.12 242.99 265.92 264.98 266.13 C 268.76 273.27 271.43 280.91 274.79 288.24 C 306.43 362.54 338.20 436.79 369.90 511.06 C 373.05 518.27 375.65 525.75 379.79 532.48 C 377.35 538.43 374.72 544.31 371.82 550.05 C 369.69 549.90 367.57 549.80 365.45 549.74 C 360.91 538.63 356.08 527.64 351.40 516.59 C 344.94 499.70 337.51 483.20 330.37 466.58 C 304.61 406.11 278.54 345.77 252.83 285.28 C 234.91 285.21 216.99 285.10 199.08 285.20 C 194.91 293.08 192.03 301.55 188.93 309.89 C 178.33 341.39 173.03 374.75 174.21 408.00 C 176.14 470.91 200.04 533.08 241.40 580.61 C 282.62 629.17 341.47 661.97 404.12 672.89 C 417.25 675.40 430.63 676.63 444.00 676.76 C 510.90 679.01 578.20 655.43 629.44 612.43 C 640.91 602.96 651.21 592.19 661.24 581.24 C 669.40 571.36 677.73 561.48 684.11 550.33 C 656.41 550.09 628.70 550.42 601.00 550.32 C 591.09 550.14 581.15 550.95 571.28 549.80 C 570.69 543.75 570.81 537.68 570.50 531.62 C 579.94 532.95 589.49 532.22 598.98 532.27 C 643.00 532.13 687.02 532.01 731.04 532.13 C 728.62 539.43 724.26 545.83 720.53 552.48 C 685.87 614.42 628.70 663.23 562.43 688.48 C 525.73 702.55 486.31 709.70 447.00 709.00 C 369.26 708.26 292.45 676.41 236.66 622.33 C 230.53 616.47 224.28 610.67 219.04 603.97 C 214.98 599.01 210.40 594.47 206.85 589.11 C 164.15 534.23 140.76 464.54 142.10 394.99 C 142.34 357.14 150.16 319.38 164.35 284.31 Z"
     id="path3346" />
  <path
     fill="#fefeff"
     d=" M 199.08 285.20 C 216.99 285.10 234.91 285.21 252.83 285.28 C 278.54 345.77 304.61 406.11 330.37 466.58 C 337.51 483.20 344.94 499.70 351.40 516.59 C 356.08 527.64 360.91 538.63 365.45 549.74 C 367.57 549.80 369.69 549.90 371.82 550.05 C 374.72 544.31 377.35 538.43 379.79 532.48 C 408.05 466.66 436.81 401.05 465.28 335.31 C 472.67 318.66 479.44 301.73 487.23 285.26 C 491.15 285.10 495.07 284.97 499.01 284.99 C 522.76 285.16 546.51 284.89 570.26 285.11 C 570.64 294.74 570.27 304.37 570.36 314.00 C 570.41 370.34 570.13 426.67 570.13 483.00 C 570.29 499.20 569.28 515.44 570.50 531.62 C 570.81 537.68 570.69 543.75 571.28 549.80 C 581.15 550.95 591.09 550.14 601.00 550.32 C 628.70 550.42 656.41 550.09 684.11 550.33 C 677.73 561.48 669.40 571.36 661.24 581.24 C 651.21 592.19 640.91 602.96 629.44 612.43 C 578.20 655.43 510.90 679.01 444.00 676.76 C 430.63 676.63 417.25 675.40 404.12 672.89 C 341.47 661.97 282.62 629.17 241.40 580.61 C 200.04 533.08 176.14 470.91 174.21 408.00 C 173.03 374.75 178.33 341.39 188.93 309.89 C 192.03 301.55 194.91 293.08 199.08 285.20 Z"
     id="path3348"
     style="fill:none" />
</svg>
