<?xml version="1.0" encoding="UTF-8" standalone="no"?>
<svg
   xmlns:dc="http://purl.org/dc/elements/1.1/"
   xmlns:cc="http://creativecommons.org/ns#"
   xmlns:rdf="http://www.w3.org/1999/02/22-rdf-syntax-ns#"
   xmlns:svg="http://www.w3.org/2000/svg"
   xmlns="http://www.w3.org/2000/svg"
   xmlns:sodipodi="http://sodipodi.sourceforge.net/DTD/sodipodi-0.dtd"
   xmlns:inkscape="http://www.inkscape.org/namespaces/inkscape"
   width="700pt"
   height="700pt"
   viewBox="0 0 700 700"
   version="1.1"
   id="svg3336"
   inkscape:version="0.91 r13725"
   sodipodi:docname="VL.svg">
  <metadata
     id="metadata3354">
    <rdf:RDF>
      <cc:Work
         rdf:about="">
        <dc:format>image/svg+xml</dc:format>
        <dc:type
           rdf:resource="http://purl.org/dc/dcmitype/StillImage" />
        <dc:title></dc:title>
      </cc:Work>
    </rdf:RDF>
  </metadata>
  <defs
     id="defs3352" />
  <sodipodi:namedview
     pagecolor="#ffffff"
     bordercolor="#666666"
     borderopacity="1"
     objecttolerance="10"
     gridtolerance="10"
     guidetolerance="10"
     inkscape:pageopacity="0"
     inkscape:pageshadow="2"
     inkscape:window-width="1218"
     inkscape:window-height="697"
     id="namedview3350"
     showgrid="false"
     inkscape:zoom="0.53672173"
     inkscape:cx="291.43348"
     inkscape:cy="470.14401"
     inkscape:window-x="54"
     inkscape:window-y="-8"
     inkscape:window-maximized="1"
     inkscape:current-layer="svg3336" />
  <path
     d="m 0,-87 906,0 0,787 -906,0 0,-787 z"
     id="path3338"
     style="fill:none"
     inkscape:connector-curvature="0" />
  <path
     d="m 353.09218,40.333663 c -19.38014,-0.102112 -38.76687,1.635624 -57.8078,5.259376 -59.52,10.959998 -115.61969,39.799998 -159.07969,81.950001 -26.27,25.32 -47.720308,55.48969 -63.670308,88.27969 8.79,1.1 17.66062,0.47062 26.490619,0.59062 21.989999,0.08 43.989689,-0.12093 65.979689,0.0891 3.78,7.14 6.45093,14.78093 9.81093,22.11093 31.64,74.3 63.40938,148.54876 95.10938,222.81876 3.15,7.21 5.75062,14.69031 9.89062,21.42031 28.26,-65.82 57.01907,-131.43031 85.48907,-197.17031 7.39,-16.65 14.16,-33.58 21.95,-50.05 3.92,-0.16 7.83969,-0.28876 11.77969,-0.26876 23.75,0.17 47.5,-0.10124 71.25,0.11876 0.38,9.63 0.01,19.26062 0.1,28.89062 0.05,56.34 -0.22969,112.67 -0.22969,169 0.16,16.2 -0.84969,32.44031 0.37031,48.62031 9.44,1.33 18.98969,0.6 28.47969,0.65 44.02,-0.14 88.04093,-0.26062 132.06093,-0.14062 2.35,-3.34 3.26969,-7.43907 5.02969,-11.08907 18.16,-41.74 26.44,-87.62093 24.75,-133.06093 -0.49,-22.64003 -4.46031,-45.03972 -9.87031,-66.97972 -9.71,-36.23 -25.69938,-70.84938 -47.55938,-101.35938 -40.01,-56.62 -99.89124,-98.550623 -166.48124,-117.590623 -27.20563,-7.861248 -55.51736,-11.939824 -83.8422,-12.089064 z m -0.0937,32.103124 c 23.75871,0.0874 47.50062,3.21969 70.44687,9.48594 38.51,10.36 74.78031,29.089383 105.47031,54.559383 26.4,21.88 48.54907,48.80124 65.23907,78.73124 16.75,30.54 28.01969,64.13938 32.47969,98.70938 6.67,50.49 -0.85938,102.82062 -21.85938,149.24062 -22.91,0.58 -45.83,0.039 -68.75,0.33907 -9.31,-0.03 -18.61031,0.0897 -27.92031,-0.0703 0.22,-77.02 0.28,-154.03938 0.3,-231.05938 0.09,-11.65 -0.1,-23.3 -0.5,-34.95 -37.96,-0.45 -75.91969,-0.0506 -113.87969,-0.19062 -10.58,0.17 -21.17062,-0.41907 -31.74062,0.36093 -5.59,11.64 -10.08938,23.75032 -15.50938,35.47032 -22.36,51.97 -44.78,103.91875 -67.2,155.86875 -3.4,7.56 -6.26031,15.37 -10.17031,22.7 -30.61,-71.35 -61.08,-142.75969 -91.55,-214.17969 -19.28,-0.4 -38.56938,0.18031 -57.85938,-0.27969 28.49,-43.8 70.03969,-78.87031 117.67969,-100.220313 36.08125,-16.35 75.72558,-24.66123 115.32344,-24.51562 z"
     id="path3340"
     style="fill:#1d35d5;fill-opacity:1"
     inkscape:connector-curvature="0" />
  <path
     d="m 362.285,197.59273 c 10.57,-0.78 21.16,-0.19 31.74,-0.36 37.96,0.14 75.92,-0.26 113.88,0.19 0.4,11.65 0.59,23.3 0.5,34.95 -0.02,77.02 -0.08,154.04 -0.3,231.06 -6.32,0.36 -12.65,0.47 -18.97,0.07 -0.16,-50.04 0.32,-100.08 0.22,-150.13 0.02,-27.33 -0.01,-54.67 0.04,-82 0.12,-4.96 0.04,-9.91 -0.39,-14.85 -24.32,-0.5 -48.66,-0.07 -72.98,-0.21 -13.58,0.13 -27.17,-0.29 -40.75,0.21 -30.83,70.51 -61.67,141.04 -92.38,211.61 -1.08,2.4 -2.22,4.77 -3.38,7.14 -3.43,-7.86 -7.08,-15.62 -10.11,-23.64 3.91,-7.33 6.77,-15.14 10.17,-22.7 22.42,-51.95 44.84,-103.9 67.2,-155.87 5.42,-11.72 9.92,-23.83 15.51,-35.47 z"
     id="path3344"
     inkscape:connector-curvature="0"
     style="fill:#43b2f3" />
  <path
     d="m 64.375002,234.68273 c 2.81,-6.25 4.85,-12.84 8.16,-18.86 8.79,1.1 17.66,0.47 26.489999,0.59 21.989999,0.08 43.989999,-0.12 65.979999,0.09 3.78,7.14 6.45,14.78 9.81,22.11 31.64,74.3 63.41,148.55 95.11,222.82 3.15,7.21 5.75,14.69 9.89,21.42 -2.44,5.95 -5.07,11.83 -7.97,17.57 -2.13,-0.15 -4.25,-0.25 -6.37,-0.31 -4.54,-11.11 -9.37,-22.1 -14.05,-33.15 -6.46,-16.89 -13.89,-33.39 -21.03,-50.01 -25.76,-60.47 -51.83,-120.81 -77.54,-181.3 -17.92,-0.07 -35.84,-0.18 -53.749999,-0.08 -4.169999,7.88 -7.049999,16.35 -10.149999,24.69 -10.6,31.5 -15.9,64.86 -14.72,98.11 1.93,62.91 25.829998,125.08 67.189998,172.61 41.22,48.56 100.07,81.36 162.72,92.28 13.13,2.51 26.51,3.74 39.88,3.87 66.9,2.25 134.2,-21.33 185.44,-64.33 11.47,-9.47 21.77,-20.24 31.8,-31.19 8.16,-9.88 16.49,-19.76 22.87,-30.91 -27.7,-0.24 -55.41,0.09 -83.11,-0.01 -9.91,-0.18 -19.85,0.63 -29.72,-0.52 -0.59,-6.05 -0.47,-12.12 -0.78,-18.18 9.44,1.33 18.99,0.6 28.48,0.65 44.02,-0.14 88.04,-0.26 132.06,-0.14 -2.42,7.3 -6.78,13.7 -10.51,20.35 -34.66,61.94 -91.83,110.75 -158.1,136 -36.7,14.07 -76.12,21.22 -115.43,20.52 -77.74,-0.74 -154.55,-32.59 -210.34,-86.67 -6.13,-5.86 -12.38,-11.66 -17.62,-18.36 -4.06,-4.96 -8.64,-9.5 -12.19,-14.86 -42.699998,-54.88 -66.089998,-124.57 -64.749998,-194.12 0.24,-37.85 8.06,-75.61 22.25,-110.68 z"
     id="path3346"
     inkscape:connector-curvature="0"
     style="fill:#43b2f3" />
  <path
     d="m 99.105001,235.57273 c 17.909999,-0.1 35.829999,0.01 53.749999,0.08 25.71,60.49 51.78,120.83 77.54,181.3 7.14,16.62 14.57,33.12 21.03,50.01 4.68,11.05 9.51,22.04 14.05,33.15 2.12,0.06 4.24,0.16 6.37,0.31 2.9,-5.74 5.53,-11.62 7.97,-17.57 28.26,-65.82 57.02,-131.43 85.49,-197.17 7.39,-16.65 14.16,-33.58 21.95,-50.05 3.92,-0.16 7.84,-0.29 11.78,-0.27 23.75,0.17 47.5,-0.1 71.25,0.12 0.38,9.63 0.01,19.26 0.1,28.89 0.05,56.34 -0.23,112.67 -0.23,169 0.16,16.2 -0.85,32.44 0.37,48.62 0.31,6.06 0.19,12.13 0.78,18.18 9.87,1.15 19.81,0.34 29.72,0.52 27.7,0.1 55.41,-0.23 83.11,0.01 -6.38,11.15 -14.71,21.03 -22.87,30.91 -10.03,10.95 -20.33,21.72 -31.8,31.19 -51.24,43 -118.54,66.58 -185.44,64.33 -13.37,-0.13 -26.75,-1.36 -39.88,-3.87 -62.65,-10.92 -121.5,-43.72 -162.72,-92.28 -41.36,-47.53 -65.259998,-109.7 -67.189998,-172.61 -1.18,-33.25 4.12,-66.61 14.72,-98.11 3.1,-8.34 5.98,-16.81 10.149999,-24.69 z"
     id="path3348"
     style="fill:none"
     inkscape:connector-curvature="0" />
</svg>
