<?xml version="1.0" encoding="UTF-8" ?>
<!DOCTYPE svg PUBLIC "-//W3C//DTD SVG 1.1//EN" "http://www.w3.org/Graphics/SVG/1.1/DTD/svg11.dtd">
<svg width="906pt" height="787pt" viewBox="0 0 906 787" version="1.1" xmlns="http://www.w3.org/2000/svg">
<path fill="#fefeff" d=" M 0.00 0.00 L 906.00 0.00 L 906.00 787.00 L 0.00 787.00 L 0.00 0.00 Z" />
<path fill="#1d35d5" d=" M 395.26 95.22 C 442.13 86.30 491.09 88.81 536.91 102.05 C 603.50 121.09 663.38 163.02 703.39 219.64 C 725.25 250.15 741.24 284.77 750.95 321.00 C 756.36 342.94 760.33 365.34 760.82 387.98 C 762.51 433.42 754.23 479.30 736.07 521.04 C 734.31 524.69 733.39 528.79 731.04 532.13 C 687.02 532.01 643.00 532.13 598.98 532.27 C 589.49 532.22 579.94 532.95 570.50 531.62 C 569.28 515.44 570.29 499.20 570.13 483.00 C 570.13 426.67 570.41 370.34 570.36 314.00 C 570.27 304.37 570.64 294.74 570.26 285.11 C 546.51 284.89 522.76 285.16 499.01 284.99 C 495.07 284.97 491.15 285.10 487.23 285.26 C 479.44 301.73 472.67 318.66 465.28 335.31 C 436.81 401.05 408.05 466.66 379.79 532.48 C 375.65 525.75 373.05 518.27 369.90 511.06 C 338.20 436.79 306.43 362.54 274.79 288.24 C 271.43 280.91 268.76 273.27 264.98 266.13 C 242.99 265.92 220.99 266.12 199.00 266.04 C 190.17 265.92 181.30 266.55 172.51 265.45 C 188.46 232.66 209.91 202.49 236.18 177.17 C 279.64 135.02 335.74 106.18 395.26 95.22 Z" />
<path fill="#fefeff" d=" M 337.65 146.58 C 395.38 120.42 462.23 114.84 523.42 131.55 C 561.93 141.91 598.20 160.64 628.89 186.11 C 655.29 207.99 677.44 234.91 694.13 264.84 C 710.88 295.38 722.15 328.98 726.61 363.55 C 733.28 414.04 725.75 466.37 704.75 512.79 C 681.84 513.37 658.92 512.83 636.00 513.13 C 626.69 513.10 617.39 513.22 608.08 513.06 C 608.30 436.04 608.36 359.02 608.38 282.00 C 608.47 270.35 608.28 258.70 607.88 247.05 C 569.92 246.60 531.96 247.00 494.00 246.86 C 483.42 247.03 472.83 246.44 462.26 247.22 C 456.67 258.86 452.17 270.97 446.75 282.69 C 424.39 334.66 401.97 386.61 379.55 438.56 C 376.15 446.12 373.29 453.93 369.38 461.26 C 338.77 389.91 308.30 318.50 277.83 247.08 C 258.55 246.68 239.26 247.26 219.97 246.80 C 248.46 203.00 290.01 167.93 337.65 146.58 Z" />
<path fill="#43b2f3" d=" M 462.26 247.22 C 472.83 246.44 483.42 247.03 494.00 246.86 C 531.96 247.00 569.92 246.60 607.88 247.05 C 608.28 258.70 608.47 270.35 608.38 282.00 C 608.36 359.02 608.30 436.04 608.08 513.06 C 601.76 513.42 595.43 513.53 589.11 513.13 C 588.95 463.09 589.43 413.05 589.33 363.00 C 589.35 335.67 589.32 308.33 589.37 281.00 C 589.49 276.04 589.41 271.09 588.98 266.15 C 564.66 265.65 540.32 266.08 516.00 265.94 C 502.42 266.07 488.83 265.65 475.25 266.15 C 444.42 336.66 413.58 407.19 382.87 477.76 C 381.79 480.16 380.65 482.53 379.49 484.90 C 376.06 477.04 372.41 469.28 369.38 461.26 C 373.29 453.93 376.15 446.12 379.55 438.56 C 401.97 386.61 424.39 334.66 446.75 282.69 C 452.17 270.97 456.67 258.86 462.26 247.22 Z" />
<path fill="#43b2f3" d=" M 164.35 284.31 C 167.16 278.06 169.20 271.47 172.51 265.45 C 181.30 266.55 190.17 265.92 199.00 266.04 C 220.99 266.12 242.99 265.92 264.98 266.13 C 268.76 273.27 271.43 280.91 274.79 288.24 C 306.43 362.54 338.20 436.79 369.90 511.06 C 373.05 518.27 375.65 525.75 379.79 532.48 C 377.35 538.43 374.72 544.31 371.82 550.05 C 369.69 549.90 367.57 549.80 365.45 549.74 C 360.91 538.63 356.08 527.64 351.40 516.59 C 344.94 499.70 337.51 483.20 330.37 466.58 C 304.61 406.11 278.54 345.77 252.83 285.28 C 234.91 285.21 216.99 285.10 199.08 285.20 C 194.91 293.08 192.03 301.55 188.93 309.89 C 178.33 341.39 173.03 374.75 174.21 408.00 C 176.14 470.91 200.04 533.08 241.40 580.61 C 282.62 629.17 341.47 661.97 404.12 672.89 C 417.25 675.40 430.63 676.63 444.00 676.76 C 510.90 679.01 578.20 655.43 629.44 612.43 C 640.91 602.96 651.21 592.19 661.24 581.24 C 669.40 571.36 677.73 561.48 684.11 550.33 C 656.41 550.09 628.70 550.42 601.00 550.32 C 591.09 550.14 581.15 550.95 571.28 549.80 C 570.69 543.75 570.81 537.68 570.50 531.62 C 579.94 532.95 589.49 532.22 598.98 532.27 C 643.00 532.13 687.02 532.01 731.04 532.13 C 728.62 539.43 724.26 545.83 720.53 552.48 C 685.87 614.42 628.70 663.23 562.43 688.48 C 525.73 702.55 486.31 709.70 447.00 709.00 C 369.26 708.26 292.45 676.41 236.66 622.33 C 230.53 616.47 224.28 610.67 219.04 603.97 C 214.98 599.01 210.40 594.47 206.85 589.11 C 164.15 534.23 140.76 464.54 142.10 394.99 C 142.34 357.14 150.16 319.38 164.35 284.31 Z" />
<path fill="#fefeff" d=" M 199.08 285.20 C 216.99 285.10 234.91 285.21 252.83 285.28 C 278.54 345.77 304.61 406.11 330.37 466.58 C 337.51 483.20 344.94 499.70 351.40 516.59 C 356.08 527.64 360.91 538.63 365.45 549.74 C 367.57 549.80 369.69 549.90 371.82 550.05 C 374.72 544.31 377.35 538.43 379.79 532.48 C 408.05 466.66 436.81 401.05 465.28 335.31 C 472.67 318.66 479.44 301.73 487.23 285.26 C 491.15 285.10 495.07 284.97 499.01 284.99 C 522.76 285.16 546.51 284.89 570.26 285.11 C 570.64 294.74 570.27 304.37 570.36 314.00 C 570.41 370.34 570.13 426.67 570.13 483.00 C 570.29 499.20 569.28 515.44 570.50 531.62 C 570.81 537.68 570.69 543.75 571.28 549.80 C 581.15 550.95 591.09 550.14 601.00 550.32 C 628.70 550.42 656.41 550.09 684.11 550.33 C 677.73 561.48 669.40 571.36 661.24 581.24 C 651.21 592.19 640.91 602.96 629.44 612.43 C 578.20 655.43 510.90 679.01 444.00 676.76 C 430.63 676.63 417.25 675.40 404.12 672.89 C 341.47 661.97 282.62 629.17 241.40 580.61 C 200.04 533.08 176.14 470.91 174.21 408.00 C 173.03 374.75 178.33 341.39 188.93 309.89 C 192.03 301.55 194.91 293.08 199.08 285.20 Z" />
</svg>
